<svg width="70" height="70" viewBox="0 0 70 70" fill="none" xmlns="http://www.w3.org/2000/svg">
<g clip-path="url(#clip0_2011_1395)">
<rect width="70" height="70" rx="8" fill="url(#paint0_linear_2011_1395)"/>
<rect opacity="0.5" x="6" y="6" width="60" height="59" fill="#0675BA"/>
<rect x="-1" y="-1" width="72" height="72" rx="8" fill="black" fill-opacity="0.01"/>
<g filter="url(#filter1_d_2011_1395)">
<g clip-path="url(#clip1_2011_1395)">
<path d="M55 11H49V9C49 8.46957 48.7893 7.96086 48.4142 7.58579C48.0391 7.21071 47.5304 7 47 7C46.4696 7 45.9609 7.21071 45.5858 7.58579C45.2107 7.96086 45 8.46957 45 9V11H25V9C25 8.46957 24.7893 7.96086 24.4142 7.58579C24.0391 7.21071 23.5304 7 23 7C22.4696 7 21.9609 7.21071 21.5858 7.58579C21.2107 7.96086 21 8.46957 21 9V11H15C13.9391 11 12.9217 11.4214 12.1716 12.1716C11.4214 12.9217 11 13.9391 11 15V55C11 56.0609 11.4214 57.0783 12.1716 57.8284C12.9217 58.5786 13.9391 59 15 59H55C56.0609 59 57.0783 58.5786 57.8284 57.8284C58.5786 57.0783 59 56.0609 59 55V15C59 13.9391 58.5786 12.9217 57.8284 12.1716C57.0783 11.4214 56.0609 11 55 11ZM21 19V17C21 16.4696 21.2107 15.9609 21.5858 15.5858C21.9609 15.2107 22.4696 15 23 15C23.5304 15 24.0391 15.2107 24.4142 15.5858C24.7893 15.9609 25 16.4696 25 17V19C25 19.5304 24.7893 20.0391 24.4142 20.4142C24.0391 20.7893 23.5304 21 23 21C22.4696 21 21.9609 20.7893 21.5858 20.4142C21.2107 20.0391 21 19.5304 21 19ZM41.64 44.7675C39.7245 46.3543 37.6492 47.7375 35.4475 48.895C35.3086 48.9645 35.1554 49.0007 35 49.0007C34.8446 49.0007 34.6914 48.9645 34.5525 48.895C32.3508 47.7375 30.2755 46.3543 28.36 44.7675C24.14 41.25 22 37.6275 22 34C22.0007 32.4698 22.5027 30.982 23.4293 29.7642C24.3559 28.5465 25.656 27.6659 27.1306 27.2573C28.6053 26.8486 30.1732 26.9344 31.5944 27.5016C33.0156 28.0687 34.2118 29.0859 35 30.3975C35.7882 29.0859 36.9844 28.0687 38.4056 27.5016C39.8268 26.9344 41.3947 26.8486 42.8694 27.2573C44.344 27.6659 45.6441 28.5465 46.5707 29.7642C47.4973 30.982 47.9993 32.4698 48 34C48 37.6275 45.86 41.25 41.64 44.7675ZM49 19C49 19.5304 48.7893 20.0391 48.4142 20.4142C48.0391 20.7893 47.5304 21 47 21C46.4696 21 45.9609 20.7893 45.5858 20.4142C45.2107 20.0391 45 19.5304 45 19V17C45 16.4696 45.2107 15.9609 45.5858 15.5858C45.9609 15.2107 46.4696 15 47 15C47.5304 15 48.0391 15.2107 48.4142 15.5858C48.7893 15.9609 49 16.4696 49 17V19Z" fill="url(#paint1_linear_2011_1395)"/>
</g>
</g>
</g>
<rect x="0.5" y="0.5" width="69" height="69" rx="7.5" stroke="url(#paint2_linear_2011_1395)"/>
<defs>
<filter id="filter1_d_2011_1395" x="-1" y="3" width="72" height="72" filterUnits="userSpaceOnUse" color-interpolation-filters="sRGB">
<feFlood flood-opacity="0" result="BackgroundImageFix"/>
<feColorMatrix in="SourceAlpha" type="matrix" values="0 0 0 0 0 0 0 0 0 0 0 0 0 0 0 0 0 0 127 0" result="hardAlpha"/>
<feOffset dy="4"/>
<feGaussianBlur stdDeviation="2"/>
<feComposite in2="hardAlpha" operator="out"/>
<feColorMatrix type="matrix" values="0 0 0 0 1 0 0 0 0 1 0 0 0 0 1 0 0 0 0.25 0"/>
<feBlend mode="normal" in2="BackgroundImageFix" result="effect1_dropShadow_2011_1395"/>
<feBlend mode="normal" in="SourceGraphic" in2="effect1_dropShadow_2011_1395" result="shape"/>
</filter>
<linearGradient id="paint0_linear_2011_1395" x1="9.72222" y1="1.63223e-06" x2="70" y2="70" gradientUnits="userSpaceOnUse">
<stop stop-color="#B8E1FF"/>
<stop offset="1" stop-color="#3997D7"/>
</linearGradient>
<linearGradient id="paint1_linear_2011_1395" x1="13.4058" y1="12.4464" x2="39.9058" y2="65.4464" gradientUnits="userSpaceOnUse">
<stop stop-color="white"/>
<stop offset="1" stop-color="white" stop-opacity="0.7"/>
</linearGradient>
<linearGradient id="paint2_linear_2011_1395" x1="7.5" y1="-1" x2="70" y2="68" gradientUnits="userSpaceOnUse">
<stop stop-color="white" stop-opacity="0.2"/>
<stop offset="1" stop-color="white" stop-opacity="0.3"/>
</linearGradient>
<clipPath id="clip0_2011_1395">
<rect width="70" height="70" rx="8" fill="white"/>
</clipPath>
<clipPath id="clip1_2011_1395">
<rect width="64" height="64" fill="white" transform="translate(3 3)"/>
</clipPath>
</defs>
</svg>
